# xmcd
# Copyright (C) 1995-1998 Ti Kan
#
# Track frame offsets:
#       150
#       15640
#       31835
#       42015
#
# Disc length: 708 seconds
#
# Revision: 3
# Processed by: cddbd v1.5.2PL0 Copyright (c) Steve Scherf et al.
# Submitted via: CD-Import v1.0
#
DISCID=2102c204
DTITLE=Supremes - These Boots... Lied-Der-Woche-Album
DYEAR=1900
DGENRE=
TTITLE0=Bisogna Fare Qualcosa (These Boots Are Amde For Walkin')
TTITLE1=These Boots Are Made For Walkin'
TTITLE2=These Boots Are Made For Walkin'
TTITLE3=These Boots Are Made For Walkin'
EXTD=
EXTT0=
EXTT1=
EXTT2=
EXTT3=
PLAYORDER=
